<?xml version="1.0" standalone="no"?>
<!DOCTYPE svg PUBLIC "-//W3C//DTD SVG 20010904//EN"
 "http://www.w3.org/TR/2001/REC-SVG-20010904/DTD/svg10.dtd">
<svg version="1.0" xmlns="http://www.w3.org/2000/svg"
 width="512.000000pt" height="512.000000pt" viewBox="0 0 512.000000 512.000000"
 preserveAspectRatio="xMidYMid meet">

<g transform="translate(0.000000,512.000000) scale(0.100000,-0.100000)"
fill="#000000" stroke="none">
<path d="M1585 4300 c-539 -188 -949 -337 -962 -348 -17 -15 -23 -31 -23 -62
0 -42 285 -2445 295 -2487 3 -12 20 -30 37 -41 135 -82 1603 -882 1620 -882
23 0 1609 873 1645 905 21 19 30 91 173 1283 133 1109 150 1266 137 1285 -10
16 -237 97 -973 349 -527 180 -970 328 -984 327 -14 0 -448 -148 -965 -329z
m1781 -106 c440 -152 842 -291 894 -308 54 -19 96 -39 98 -47 2 -13 -260
-2243 -273 -2315 -5 -29 -41 -51 -759 -447 -415 -230 -759 -417 -766 -417 -9
0 -1496 800 -1519 816 -6 5 -281 2327 -278 2349 2 17 134 67 882 331 484 172
890 312 901 313 12 0 381 -123 820 -275z"/>
<path d="M1755 4025 c-492 -173 -785 -281 -793 -292 -7 -10 -15 -27 -18 -39
-3 -11 51 -488 120 -1060 105 -864 129 -1042 144 -1056 31 -30 1319 -728 1344
-728 23 0 1327 716 1356 744 9 9 54 349 138 1036 68 563 124 1040 124 1060 0
23 -7 43 -19 54 -17 16 -1580 557 -1605 556 -6 -1 -362 -124 -791 -275z m1522
-137 c401 -138 729 -252 731 -253 9 -7 -230 -1941 -241 -1951 -7 -7 -282 -161
-611 -344 l-599 -332 -31 15 c-47 22 -1170 647 -1178 655 -7 7 -242 1942 -236
1947 2 2 278 101 613 220 490 174 800 285 822 294 2 1 330 -112 730 -251z"/>
</g>
</svg>
