<?xml version="1.0" standalone="no"?>
<!DOCTYPE svg PUBLIC "-//W3C//DTD SVG 20010904//EN"
 "http://www.w3.org/TR/2001/REC-SVG-20010904/DTD/svg10.dtd">
<svg version="1.0" xmlns="http://www.w3.org/2000/svg"
 width="800.000000pt" height="600.000000pt" viewBox="0 0 800.000000 600.000000"
 preserveAspectRatio="xMidYMid meet">

<g transform="translate(0.000000,600.000000) scale(0.100000,-0.100000)"
fill="#000000" stroke="none">
<path d="M3000 4728 c0 -13 -9 -120 -20 -238 -11 -118 -20 -221 -20 -227 0
-10 -53 -13 -230 -13 l-230 0 0 -229 0 -228 -57 -6 c-32 -4 -143 -14 -248 -23
-104 -9 -191 -17 -192 -18 -4 -4 215 -2487 219 -2492 2 -2 312 23 689 56 376
33 1042 92 1480 130 438 39 802 70 809 70 10 0 11 26 5 115 l-7 115 156 0 156
0 0 136 0 137 98 -7 c53 -4 114 -10 134 -13 l36 -5 6 43 c3 24 51 564 106
1199 55 635 102 1179 106 1208 4 40 2 52 -8 52 -7 0 -681 59 -1498 130 -817
72 -1486 130 -1487 130 -2 0 -3 -10 -3 -22z m1524 -363 c659 -58 1200 -106
1201 -107 6 -6 -171 -1988 -178 -1994 -3 -3 -13 -4 -22 -1 -13 6 -15 113 -15
997 l0 990 -1151 0 -1151 0 6 48 c3 26 8 77 12 115 l6 67 47 -5 c25 -3 586
-53 1245 -110z m736 -1370 l0 -1005 -1255 0 -1255 0 0 1005 0 1005 1255 0
1255 0 0 -1005z m-2760 -355 l0 -900 1198 -1 1197 -1 -485 -44 c-1251 -112
-1955 -172 -1961 -166 -3 4 -20 180 -38 392 -18 212 -57 657 -86 990 -29 333
-52 606 -51 607 2 2 164 19 204 22 l22 1 0 -900z"/>
<path d="M3474 3491 c-82 -20 -129 -89 -122 -178 6 -67 29 -101 91 -132 69
-34 127 -24 183 33 46 45 61 91 50 151 -16 84 -116 146 -202 126z"/>
<path d="M4098 3168 c-52 -73 -114 -161 -138 -195 l-43 -61 -73 76 c-72 77
-73 77 -92 57 -27 -29 -392 -523 -398 -540 -5 -13 75 -15 655 -15 l662 0 -12
23 c-25 46 -452 772 -459 780 -4 5 -50 -51 -102 -125z"/>
</g>
</svg>
